<svg width="400" height="400" xmlns="http://www.w3.org/2000/svg">
 <!-- Created with Method Draw - http://github.com/duopixel/Method-Draw/ -->
 <g>
  <title>background</title>
  <rect fill="none" id="canvas_background" height="402" width="402" y="-1" x="-1"/>
  <g display="none" overflow="visible" y="0" x="0" height="100%" width="100%" id="canvasGrid">
   <rect fill="url(#gridpattern)" stroke-width="0" y="0" x="0" height="100%" width="100%"/>
  </g>
 </g>
 <g>
  <title>Layer 1</title>
  <path id="svg_1" d="m277.633533,129.784672c1.066089,-4.459342 1.160656,-11.763492 0.21556,-16.248118l-3.127475,-14.806586c-0.944965,-4.484597 -5.14739,-8.796887 -9.344059,-9.581679l-28.823174,-5.377651c-4.193634,-0.784782 -11.062856,-0.75917 -15.250568,0.057301l-31.221288,6.073124c-4.196616,0.816452 -11.062743,0.899365 -15.274099,0.19142l-30.548032,-5.141919c0.038383,0.159487 0.106298,0.300011 0.138881,0.459497l20.908663,107.287746l9.568541,1.785966c4.19646,0.784885 11.056751,0.752802 15.253359,-0.057179l31.212418,-6.079501c4.187712,-0.810094 11.062795,-0.892979 15.274142,-0.185089l33.515896,5.645916c4.211356,0.70787 7.014051,-2.40527 6.246045,-6.934413l-3.753382,-21.94492c-0.773797,-4.523086 -0.534732,-11.865659 0.525531,-16.325011l4.483039,-18.818894l0,-0.000009zm-149.979066,-49.101627c-4.190529,0.956751 -6.869153,5.377585 -5.986145,9.894209l44.617187,228.92274l15.814509,0l-45.272799,-232.34842c-0.897764,-4.535821 -4.993918,-7.42559 -9.172743,-6.468529l-0.000009,0z" stroke-width="1.5" stroke="#000" fill="#9ACEE6"/>
 </g>
</svg>