<svg width="400" height="400" xmlns="http://www.w3.org/2000/svg">
 <!-- Created with Method Draw - http://github.com/duopixel/Method-Draw/ -->
 <g>
  <title>background</title>
  <rect fill="none" id="canvas_background" height="402" width="402" y="-1" x="-1"/>
  <g display="none" overflow="visible" y="0" x="0" height="100%" width="100%" id="canvasGrid">
   <rect fill="url(#gridpattern)" stroke-width="0" y="0" x="0" height="100%" width="100%"/>
  </g>
 </g>
 <g>
  <title>Layer 1</title>
  <path id="svg_1" d="m193.030441,104.000004l0,19.062428c-44.768147,2.675428 -80.03044,31.04105 -80.03044,65.639205c0,-6.232532 9.74473,-11.294564 21.744729,-11.294564c12.007025,0 21.751755,5.062032 21.751755,11.294564c0,-6.232532 9.737704,-11.294564 21.744729,-11.294564c5.711943,0 10.903981,1.185701 14.789226,3.055461l0,92.940736c0,4.157555 -3.119438,7.524642 -6.955503,7.524642c-3.843091,0 -6.962529,-3.367087 -6.962529,-7.524642l0,-3.769922l-13.918032,0l0,3.769922c0,12.472665 9.358313,22.596729 20.880561,22.596729s20.873535,-10.124064 20.873535,-22.596729l0,-92.940736c3.885246,-1.87736 9.084309,-3.055461 14.796252,-3.055461c11.992973,0 21.751755,5.062032 21.751755,11.294564c0,-6.232532 9.74473,-11.294564 21.737704,-11.294564c12.021077,0 21.765807,5.062032 21.765807,11.294564c0,-34.590553 -35.269319,-62.956175 -80.044491,-65.639205l0,-19.062428l-13.925058,0z" stroke-width="1.5" stroke="#000" fill="#D3BEE7"/>
 </g>
</svg>