<svg width="400" height="400" xmlns="http://www.w3.org/2000/svg">
 <!-- Created with Method Draw - http://github.com/duopixel/Method-Draw/ -->
 <g>
  <title>background</title>
  <rect fill="none" id="canvas_background" height="402" width="402" y="-1" x="-1"/>
  <g display="none" overflow="visible" y="0" x="0" height="100%" width="100%" id="canvasGrid">
   <rect fill="url(#gridpattern)" stroke-width="0" y="0" x="0" height="100%" width="100%"/>
  </g>
 </g>
 <g>
  <title>Layer 1</title>
  <path id="svg_1" d="m304.499996,128.511518c-5.848161,-10.877645 -18.036914,-8.914539 -27.108791,-11.385431c-7.532597,-3.637482 -19.069078,-7.124534 -24.428605,3.279727c-7.152278,9.71064 -13.500381,20.181603 -19.149687,31.123271c-11.847456,15.122836 -26.23358,27.249015 -40.694544,38.690322c-12.181368,6.971855 -25.517077,12.408897 -35.378066,23.768521c-18.725445,13.993785 -41.536146,16.545026 -62.240302,24.748567c3.669874,1.486521 19.917366,-3.916266 8.995918,1.999977c-8.125309,3.117427 3.197884,6.014594 6.813618,3.93475c-2.854867,3.556304 -3.640175,3.847104 -0.129183,3.793599c-6.378488,4.15229 14.164408,-1.289607 2.852356,4.521711c-4.924963,1.677911 -17.03496,17.15658 -5.930679,10.18334c10.324022,-5.005123 21.329141,-7.522727 32.068776,-10.962579c-8.032483,9.619947 -19.479298,15.635885 -24.999995,27.833605c0.125477,3.148392 8.545411,-6.397171 12.105619,-7.960846c20.245613,-14.253817 41.45825,-27.46416 64.265259,-35.160005c3.114582,0.874005 3.723658,10.590201 9.794241,5.62291c0.532865,6.191117 13.866755,-9.711463 10.384568,2.691365c5.774832,-10.619862 -0.010364,11.529361 5.33496,14.882593c2.727921,4.197552 13.93049,9.991591 4.798612,11.429992c-4.036158,7.03516 5.658418,-2.822098 7.775354,3.76872c7.911195,3.347342 2.148489,6.779169 -3.57802,4.752277c-4.388797,-0.682737 -5.294309,6.036157 -0.858183,1.866996c5.297302,4.23078 13.710397,2.71121 20.465336,4.530085c6.75047,0.652245 14.933164,-8.052134 17.491629,-5.942246c-6.222123,-5.20154 -15.229272,1.149604 -22.058414,-2.865363c-1.440314,-5.397761 16.00772,1.931849 16.043028,-7.19201c8.172994,-0.886045 -6.873457,-2.115745 -9.793143,0.036732c-10.056222,0.626364 -15.215621,-10.264144 -22.295067,-16.447612c0.214401,-12.83399 8.295086,-23.859475 16.752391,-31.107019c11.034057,-7.740039 22.354802,-17.709244 25.479789,-33.157047c3.239688,-13.757623 5.043678,-27.934212 6.516482,-42.042258c1.992453,-9.102776 7.719528,-17.508991 16.504277,-16.82992c4.737591,-0.769137 9.492427,-1.407819 14.200458,-2.40674l0.000007,0.000016z" stroke-width="1.5" stroke="#000" fill="#884D58"/>
 </g>
</svg>